<svg width="322" height="300" viewBox="0 0 322 300" fill="none" xmlns="http://www.w3.org/2000/svg">
<path d="M321.422 289.926C321.422 290.025 252.961 290.11 168.525 290.11C84.0891 290.11 15.6137 290.025 15.6137 289.926C15.6137 289.827 84.0608 289.742 168.525 289.742C252.989 289.742 321.422 289.827 321.422 289.926Z" fill="#263238"/>
<path d="M254.545 110.237C253.891 110.143 253.224 110.231 252.617 110.49C252.009 110.75 251.484 111.171 251.1 111.708C250.46 112.756 250.172 113.981 250.279 115.203C250.242 116.366 250.574 117.51 251.227 118.472C252.231 119.659 253.651 120.419 255.196 120.594C256.645 120.765 258.114 120.58 259.476 120.057C259.816 118.642 259.476 116.859 259.137 115.338C258.921 114.181 258.436 113.09 257.722 112.154C256.935 111.146 255.804 110.464 254.545 110.237Z" fill="#455A64"/>
<path d="M285.858 106.926C285.823 107.092 285.776 107.255 285.716 107.414C285.603 107.768 285.447 108.228 285.263 108.829C284.853 110.025 284.287 111.758 283.622 113.923C282.957 116.088 282.207 118.67 281.5 121.563C280.792 124.457 280.042 127.662 279.377 131.043C278.712 134.425 278.259 137.679 277.877 140.644C277.495 143.608 277.248 146.303 277.085 148.539C276.922 150.775 276.809 152.621 276.76 153.88C276.724 154.482 276.703 154.97 276.682 155.338C276.683 155.507 276.664 155.675 276.625 155.84C276.616 155.67 276.616 155.5 276.625 155.331C276.625 154.963 276.625 154.482 276.625 153.873C276.625 152.614 276.703 150.782 276.837 148.525C276.972 146.268 277.205 143.573 277.545 140.601C277.884 137.63 278.387 134.376 279.023 130.98C279.66 127.584 280.438 124.372 281.146 121.479C281.853 118.585 282.667 115.996 283.374 113.845C284.082 111.694 284.669 109.961 285.129 108.78C285.341 108.214 285.518 107.761 285.645 107.421C285.697 107.249 285.768 107.082 285.858 106.926Z" fill="#263238"/>
<path d="M257.545 116.972C257.649 117.094 257.739 117.227 257.814 117.368L258.521 118.528C259.144 119.54 260 121.04 261.011 122.915C262.023 124.789 263.134 127.06 264.329 129.621C265.525 132.182 266.671 135.048 267.782 138.111C268.893 141.174 269.798 144.132 270.555 146.848C271.312 149.565 271.878 152.034 272.288 154.121C272.699 156.208 272.996 157.906 273.173 159.073L273.364 160.431C273.397 160.587 273.411 160.746 273.406 160.905C273.351 160.757 273.314 160.603 273.293 160.446C273.222 160.099 273.137 159.653 273.031 159.101C272.826 157.927 272.494 156.236 272.034 154.149C271.574 152.062 270.98 149.614 270.23 146.912C269.48 144.209 268.532 141.252 267.435 138.21C266.339 135.168 265.157 132.303 264.018 129.72C262.879 127.138 261.768 124.881 260.785 123C259.802 121.118 258.981 119.597 258.394 118.564C258.118 118.076 257.899 117.672 257.729 117.368C257.652 117.244 257.59 117.111 257.545 116.972Z" fill="#263238"/>
<path d="M283.084 151.779H267.704C267.278 151.779 266.933 152.124 266.933 152.55V152.6C266.933 153.026 267.278 153.371 267.704 153.371H283.084C283.51 153.371 283.855 153.026 283.855 152.6V152.55C283.855 152.124 283.51 151.779 283.084 151.779Z" fill="#FF725E"/>
<path d="M289.374 169.643C288.815 163.452 283.933 162.603 283.006 161.945C282.805 161.798 282.624 161.624 282.469 161.429C281.892 160.691 281.584 159.777 281.599 158.84V152.579H269.338V158.84C269.355 159.776 269.05 160.69 268.475 161.429C268.319 161.626 268.135 161.8 267.93 161.945C266.997 162.603 262.115 163.452 261.563 169.643C261.011 175.833 258.939 189.911 262.596 194.404C265.971 198.557 269.268 198.804 274.75 198.811H276.208C281.691 198.811 284.987 198.557 288.362 194.404C292.005 189.911 289.94 175.84 289.374 169.643Z" fill="#FF725E"/>
<path d="M283.466 153.421C283.466 153.52 279.851 153.604 275.394 153.604C270.937 153.604 267.322 153.52 267.322 153.421C267.322 153.321 270.937 153.237 275.394 153.237C279.851 153.237 283.466 153.314 283.466 153.421Z" fill="#263238"/>
<path d="M293.286 102.165C292.967 101.474 292.473 100.879 291.852 100.44C291.231 100 290.506 99.7316 289.749 99.6604C288.236 99.5322 286.716 99.7953 285.334 100.424C284.068 100.848 282.958 101.638 282.143 102.695C281.737 103.374 281.497 104.14 281.443 104.929C281.389 105.718 281.522 106.509 281.832 107.237C282.464 108.692 283.467 109.956 284.74 110.902C286.537 110.598 288.355 109.487 289.911 108.56C291.062 107.917 292.046 107.014 292.784 105.921C293.147 105.374 293.381 104.752 293.468 104.101C293.555 103.45 293.493 102.788 293.286 102.165Z" fill="#455A64"/>
<path d="M253.774 132.918C253.48 132.401 253.326 131.816 253.326 131.22C253.326 130.625 253.48 130.04 253.774 129.522C254.373 128.492 255.225 127.632 256.25 127.025C257.095 126.4 258.108 126.042 259.158 125.999C259.777 126.042 260.378 126.231 260.911 126.551C261.443 126.871 261.892 127.312 262.221 127.839C262.873 128.906 263.234 130.126 263.268 131.376C262.135 132.358 260.834 133.128 259.427 133.647C258.496 134.095 257.474 134.32 256.441 134.305C255.92 134.294 255.408 134.163 254.946 133.923C254.483 133.682 254.082 133.339 253.774 132.918Z" fill="#455A64"/>
<path d="M270.392 125.242C270.095 124.727 269.938 124.143 269.938 123.548C269.938 122.953 270.095 122.369 270.392 121.854C270.987 120.82 271.84 119.96 272.869 119.356C273.709 118.726 274.72 118.366 275.769 118.323C276.39 118.367 276.992 118.557 277.526 118.878C278.06 119.199 278.51 119.642 278.84 120.17C279.49 121.237 279.849 122.457 279.88 123.707C278.749 124.69 277.45 125.459 276.045 125.978C275.114 126.433 274.088 126.659 273.053 126.636C272.531 126.626 272.02 126.495 271.558 126.253C271.096 126.011 270.697 125.665 270.392 125.242Z" fill="#455A64"/>
<path d="M292.402 124.047C292.77 123.57 293.007 123.005 293.09 122.408C293.173 121.811 293.099 121.203 292.876 120.644C292.422 119.534 291.691 118.56 290.753 117.814C289.987 117.077 289.019 116.585 287.973 116.399C287.346 116.358 286.717 116.464 286.138 116.71C285.56 116.956 285.047 117.334 284.641 117.814C283.85 118.798 283.329 119.971 283.127 121.217C284.125 122.366 285.323 123.325 286.664 124.047C287.541 124.626 288.542 124.989 289.586 125.108C290.105 125.158 290.629 125.089 291.117 124.905C291.605 124.721 292.045 124.427 292.402 124.047Z" fill="#455A64"/>
<path d="M269.437 115.401C269.368 114.816 269.138 114.261 268.772 113.799C268.406 113.337 267.918 112.985 267.364 112.784C266.362 112.573 265.318 112.745 264.436 113.265C263.486 113.683 262.692 114.388 262.165 115.281C261.5 116.639 261.294 118.176 261.577 119.66C261.823 120.997 262.362 122.264 263.155 123.367C264.351 123.176 265.624 122.221 266.692 121.394C267.558 120.765 268.271 119.951 268.779 119.01C269.375 117.907 269.605 116.643 269.437 115.401Z" fill="#455A64"/>
<path d="M276.837 106.636C276.184 106.544 275.517 106.632 274.91 106.892C274.302 107.151 273.778 107.571 273.392 108.107C272.755 109.156 272.468 110.38 272.571 111.602C272.533 112.765 272.865 113.909 273.519 114.871C274.517 116.072 275.938 116.845 277.488 117.029C278.938 117.203 280.407 117.018 281.768 116.491C282.108 115.076 281.768 113.3 281.429 111.779C281.213 110.62 280.728 109.527 280.014 108.589C279.233 107.567 278.101 106.872 276.837 106.636Z" fill="#455A64"/>
<path d="M263.551 117.545C263.565 118.155 263.532 118.765 263.452 119.37C263.345 120.83 263.322 122.294 263.381 123.757C263.455 125.218 263.637 126.673 263.926 128.107C264.087 128.695 264.205 129.293 264.28 129.897C263.998 129.351 263.793 128.767 263.672 128.164C263.304 126.728 263.084 125.258 263.014 123.778C262.946 122.297 263.005 120.813 263.19 119.342C263.236 118.73 263.357 118.127 263.551 117.545Z" fill="#263238"/>
<path d="M266.891 135.989C266.284 135.067 265.628 134.178 264.924 133.329C264.404 132.755 263.823 132.24 263.19 131.793C262.709 131.454 262.356 131.326 262.377 131.27C262.398 131.213 262.78 131.27 263.325 131.574C264.028 131.97 264.662 132.479 265.2 133.081C266.02 133.876 266.605 134.882 266.891 135.989Z" fill="#263238"/>
<path d="M279.589 123.339C279.988 124.121 280.191 124.987 280.184 125.865C280.293 126.736 280.186 127.62 279.872 128.44C279.766 128.44 279.872 127.28 279.816 125.886C279.759 124.492 279.455 123.339 279.589 123.339Z" fill="#263238"/>
<path d="M283.905 120.035C282.972 121.8 281.827 123.444 280.495 124.931C280.903 124.017 281.426 123.159 282.051 122.377C282.572 121.524 283.194 120.737 283.905 120.035Z" fill="#263238"/>
<path d="M281.613 119.802C281.46 119.076 281.434 118.329 281.535 117.595C281.511 116.853 281.609 116.112 281.825 115.401C282 116.87 281.929 118.357 281.613 119.802Z" fill="#263238"/>
<path d="M262.83 180.552C262.673 179.788 262.593 179.011 262.589 178.231C262.494 176.346 262.494 174.457 262.589 172.572C262.653 171.475 262.702 170.449 262.837 169.466C262.94 168.605 263.224 167.775 263.672 167.032C263.979 166.531 264.404 166.114 264.91 165.815C265.084 165.689 265.29 165.614 265.504 165.596C264.835 165.965 264.277 166.507 263.891 167.167C263.501 167.895 263.261 168.693 263.183 169.515C263.063 170.442 263.028 171.496 262.971 172.593C262.865 174.779 262.865 176.767 262.879 178.203C262.912 178.986 262.896 179.771 262.83 180.552Z" fill="#263238"/>
<path d="M241.188 290.23C240.975 290.227 240.763 290.194 240.559 290.131C240.119 290.001 239.734 289.732 239.459 289.365C239.185 288.998 239.037 288.552 239.038 288.093V263.198H239.59V288.093C239.59 288.433 239.701 288.764 239.905 289.036C240.108 289.308 240.395 289.507 240.721 289.603C241.047 289.699 241.395 289.687 241.714 289.57C242.033 289.452 242.305 289.234 242.49 288.949L259.391 263.049L259.858 263.353L242.95 289.253C242.763 289.552 242.503 289.798 242.195 289.969C241.887 290.14 241.541 290.23 241.188 290.23Z" fill="#263238"/>
<path d="M308.32 290.23C307.968 290.226 307.623 290.134 307.316 289.964C307.008 289.793 306.748 289.549 306.558 289.253L289.657 263.353L290.117 263.049L307.025 288.949C307.208 289.236 307.48 289.455 307.799 289.574C308.118 289.693 308.467 289.705 308.793 289.609C309.12 289.512 309.406 289.312 309.609 289.039C309.812 288.766 309.921 288.434 309.918 288.093V263.198H310.477V288.093C310.477 288.552 310.328 288.999 310.053 289.367C309.777 289.734 309.39 290.002 308.949 290.131C308.745 290.194 308.533 290.227 308.32 290.23Z" fill="#263238"/>
<path d="M321.273 198.373H234.475V265.787H321.273V198.373Z" fill="#AE7461"/>
<path d="M295.26 228.794C295.26 228.794 295.26 228.645 295.26 228.362C295.26 228.079 295.26 227.655 295.26 227.103C295.26 225.992 295.26 224.365 295.26 222.257C295.26 218.012 295.26 211.914 295.217 204.223L295.295 204.322L239.321 204.372L239.434 204.223C239.434 212.763 239.434 221.047 239.434 228.794L239.328 228.652L279.377 228.716L291.072 228.758H294.213H295.026H294.241H291.121L279.448 228.794L239.328 228.864H239.222V228.723C239.222 220.976 239.222 212.692 239.222 204.153V204.011H239.264L295.239 204.061H295.309V204.153C295.309 211.864 295.309 218.012 295.267 222.243C295.267 224.365 295.267 225.964 295.267 227.067C295.267 227.605 295.267 228.023 295.267 228.305C295.267 228.588 295.26 228.794 295.26 228.794Z" fill="#263238"/>
<path d="M295.26 257.927C295.26 257.927 295.26 257.778 295.26 257.495C295.26 257.212 295.26 256.788 295.26 256.236C295.26 255.125 295.26 253.498 295.26 251.39C295.26 247.145 295.26 241.047 295.217 233.357L295.295 233.456L239.321 233.505L239.434 233.357C239.434 241.896 239.434 250.18 239.434 257.927L239.264 257.757L279.314 257.821L291.008 257.863H294.149H294.977H294.177H291.057L279.384 257.906L239.264 257.969H239.158V257.828C239.158 250.081 239.158 241.797 239.158 233.258V233.116H239.264L295.239 233.166H295.309V233.258C295.309 240.969 295.309 247.124 295.267 251.355C295.267 253.477 295.267 255.069 295.267 256.172C295.267 256.717 295.267 257.128 295.267 257.418C295.267 257.708 295.26 257.927 295.26 257.927Z" fill="#263238"/>
<path d="M255.797 204.082L257.616 206.615H278.458L280.53 204.082H255.797Z" fill="#263238"/>
<path d="M255.875 233.215L257.693 235.748H278.535L280.608 233.215H255.875Z" fill="#263238"/>
<path d="M321.28 198.373H301.28V265.787H321.28V198.373Z" fill="#6F4439"/>
<path d="M147.014 83.2422C148.832 72.1373 141.304 61.6609 130.199 59.8424C119.095 58.0239 108.618 65.552 106.8 76.6568C104.981 87.7617 112.509 98.2382 123.614 100.057C134.719 101.875 145.195 94.347 147.014 83.2422Z" fill="white"/>
<path d="M147.294 79.9505C147.271 79.8433 147.257 79.7345 147.251 79.625C147.251 79.3845 147.216 79.0661 147.188 78.6558C147.188 78.4436 147.188 78.203 147.138 77.9483C147.089 77.6937 147.053 77.4107 147.004 77.0994C146.913 76.3828 146.771 75.6735 146.579 74.977C146.098 73.077 145.335 71.2599 144.315 69.5861C141.904 65.5486 138.159 62.4788 133.727 60.9058C129.295 59.3328 124.453 59.3553 120.035 60.9692C119.132 61.2939 118.253 61.6816 117.404 62.1295C116.542 62.599 115.715 63.1286 114.927 63.7142C114.124 64.3142 113.36 64.9664 112.642 65.6668C111.932 66.4008 111.27 67.1807 110.661 68.0014C109.41 69.6885 108.437 71.5661 107.782 73.5621C106.396 77.6936 106.396 82.1648 107.782 86.2964C108.434 88.2936 109.407 90.1716 110.661 91.8571C111.272 92.6787 111.933 93.4608 112.642 94.1988C113.36 94.8968 114.124 95.5468 114.927 96.1443C115.714 96.7322 116.542 97.2641 117.404 97.7361C118.254 98.1809 119.133 98.5685 120.035 98.8963C123.431 100.128 127.094 100.434 130.647 99.7807C133.466 99.2488 136.141 98.1274 138.496 96.4901C140.852 94.8528 142.835 92.7363 144.315 90.2794C145.337 88.6065 146.1 86.7891 146.579 84.8886C146.771 84.192 146.912 83.4827 147.004 82.7662C147.053 82.462 147.11 82.179 147.138 81.9172C147.166 81.6554 147.174 81.422 147.188 81.2097C147.188 80.7994 147.237 80.5023 147.251 80.2476C147.257 80.1358 147.271 80.0246 147.294 79.9151C147.294 79.9151 147.294 80.0283 147.294 80.2476C147.294 80.4669 147.294 80.8065 147.294 81.2168V81.9243C147.294 82.1861 147.223 82.4761 147.181 82.7803C147.103 83.4968 146.97 84.2063 146.784 84.9027C146.332 86.8299 145.583 88.6749 144.563 90.3714C143.084 92.878 141.088 95.0412 138.708 96.7171C136.328 98.3931 133.619 99.5435 130.76 100.092C127.136 100.798 123.388 100.519 119.908 99.2854C118.989 98.953 118.094 98.5607 117.227 98.111C116.348 97.6337 115.504 97.0947 114.701 96.498C113.02 95.2907 111.548 93.8162 110.343 92.133C109.063 90.4178 108.069 88.5065 107.4 86.4733C105.985 82.2592 105.985 77.6983 107.4 73.4842C108.072 71.4522 109.065 69.5413 110.343 67.8245C110.964 66.9881 111.64 66.1939 112.366 65.4475C113.099 64.7355 113.879 64.0737 114.701 63.4666C115.502 62.8482 116.346 62.2879 117.227 61.7899C118.094 61.3402 118.989 60.9479 119.908 60.6155C123.365 59.3691 127.093 59.0711 130.704 59.7524C133.562 60.3 136.27 61.4493 138.65 63.1241C141.03 64.7988 143.026 66.9605 144.506 69.4659C145.524 71.1635 146.273 73.0081 146.728 74.9345C146.914 75.6309 147.046 76.3404 147.124 77.0569C147.166 77.3682 147.216 77.6512 147.237 77.913V78.6204C147.237 79.0308 147.237 79.3279 147.237 79.5967C147.237 79.8656 147.294 79.9505 147.294 79.9505Z" fill="#263238"/>
<path d="M120.884 81.8323C122.205 81.8323 123.275 80.7617 123.275 79.4411C123.275 78.1204 122.205 77.0499 120.884 77.0499C119.564 77.0499 118.493 78.1204 118.493 79.4411C118.493 80.7617 119.564 81.8323 120.884 81.8323Z" fill="#263238"/>
<path d="M127.28 81.8323C128.6 81.8323 129.671 80.7617 129.671 79.4411C129.671 78.1204 128.6 77.0499 127.28 77.0499C125.959 77.0499 124.888 78.1204 124.888 79.4411C124.888 80.7617 125.959 81.8323 127.28 81.8323Z" fill="#263238"/>
<path d="M136.066 79.4764C136.068 79.9511 135.928 80.4154 135.666 80.8108C135.403 81.2061 135.029 81.5146 134.591 81.6972C134.153 81.8798 133.67 81.9283 133.205 81.8366C132.739 81.7448 132.311 81.517 131.975 81.1819C131.639 80.8467 131.409 80.4194 131.316 79.954C131.223 79.4886 131.27 79.006 131.452 78.5674C131.633 78.1287 131.94 77.7537 132.335 77.4899C132.729 77.226 133.193 77.0852 133.668 77.0852C134.303 77.0852 134.912 77.3369 135.361 77.7852C135.811 78.2334 136.064 78.8416 136.066 79.4764Z" fill="#263238"/>
<path d="M156.753 84.3792C156.753 84.9389 156.587 85.486 156.276 85.9514C155.965 86.4167 155.523 86.7794 155.006 86.9936C154.489 87.2078 153.92 87.2638 153.371 87.1546C152.822 87.0455 152.317 86.7759 151.922 86.3802C151.526 85.9844 151.256 85.4802 151.147 84.9312C151.038 84.3823 151.094 83.8133 151.308 83.2962C151.522 82.7791 151.885 82.3372 152.351 82.0262C152.816 81.7153 153.363 81.5493 153.923 81.5493C154.673 81.5493 155.393 81.8475 155.924 82.3782C156.454 82.9089 156.753 83.6286 156.753 84.3792Z" fill="white"/>
<path d="M156.753 84.3792C156.717 84.3792 156.71 84.1245 156.59 83.6717C156.405 83.0829 156.039 82.5678 155.543 82.2002C155.18 81.9367 154.757 81.7671 154.313 81.7066C153.869 81.6461 153.416 81.6966 152.996 81.8535C152.485 82.0411 152.043 82.3812 151.731 82.8279C151.419 83.2745 151.252 83.8061 151.252 84.3509C151.252 84.8956 151.419 85.4272 151.731 85.8739C152.043 86.3205 152.485 86.6606 152.996 86.8482C153.416 87.0052 153.869 87.0556 154.313 86.9952C154.757 86.9347 155.18 86.7651 155.543 86.5016C156.04 86.1328 156.407 85.6148 156.59 85.023C156.71 84.6056 156.717 84.3509 156.753 84.3509C156.814 84.5826 156.814 84.8266 156.753 85.0583C156.619 85.7167 156.255 86.306 155.727 86.7209C155.333 87.0324 154.868 87.2392 154.373 87.3221C153.878 87.405 153.37 87.3612 152.897 87.1949C152.306 86.9879 151.794 86.6023 151.431 86.0915C151.069 85.5808 150.875 84.97 150.875 84.3438C150.875 83.7176 151.069 83.1068 151.431 82.596C151.794 82.0853 152.306 81.6997 152.897 81.4927C153.37 81.3264 153.878 81.2826 154.373 81.3655C154.868 81.4484 155.333 81.6552 155.727 81.9667C156.255 82.3816 156.619 82.9709 156.753 83.6293C156.822 83.8744 156.822 84.134 156.753 84.3792Z" fill="#263238"/>
<path d="M210.251 227.152L228.779 290.23H223.573L198.026 226.714L210.251 227.152Z" fill="#6F4439"/>
<path d="M164.789 227.152L183.318 289.628H178.111L152.565 226.714L164.789 227.152Z" fill="#6F4439"/>
<path d="M108.348 227.152L91.5529 289.628H96.7598L120.58 226.714L108.348 227.152Z" fill="#AE7461"/>
<path d="M162.745 227.152L146.827 289.628H152.034L174.977 226.714L162.745 227.152Z" fill="#AE7461"/>
<path d="M98.3091 199.802C98.3091 199.802 96.8942 180.785 99.7594 175.352C102.625 169.919 130.499 158.91 130.499 158.91C130.499 158.91 149.6 128.744 162.384 122.363C175.168 115.982 225.044 116.859 232.296 126.714C239.547 136.569 231.425 162.384 227.655 178.047L214.022 216.328L210.258 227.152H106.431L98.3091 199.802Z" fill="#FF725E"/>
<path d="M227.626 126.41C227.656 126.474 227.682 126.54 227.704 126.608C227.747 126.735 227.817 126.933 227.888 127.195C228.044 127.725 228.249 128.511 228.454 129.537C229.03 132.452 229.246 135.426 229.098 138.394C228.967 140.456 228.731 142.511 228.39 144.549C228.051 146.756 227.648 149.112 227.195 151.624C226.296 156.576 225.228 162.066 224.025 167.86V167.952L223.947 167.987C222.391 168.772 220.75 169.6 219.066 170.414C209.007 175.32 198.68 179.659 188.136 183.41C184.089 184.825 180.785 185.921 178.493 186.636L175.847 187.442L175.14 187.64L174.899 187.697L175.125 187.605L175.833 187.372L178.458 186.501C180.736 185.737 184.025 184.634 188.058 183.162C198.554 179.325 208.843 174.942 218.882 170.032C220.566 169.218 222.207 168.383 223.764 167.605L223.665 167.732C224.874 161.938 225.957 156.463 226.876 151.503C227.336 149.027 227.754 146.678 228.1 144.478C228.447 142.278 228.751 140.233 228.857 138.359C229.025 135.405 228.847 132.442 228.327 129.529C228.143 128.504 227.959 127.718 227.824 127.188C227.761 126.94 227.711 126.742 227.669 126.586C227.648 126.529 227.633 126.47 227.626 126.41Z" fill="#263238"/>
<path d="M111.708 215.345C112.216 217.277 112.606 219.238 112.876 221.217C113.264 223.177 113.534 225.159 113.682 227.152C113.173 225.221 112.784 223.26 112.515 221.28C112.126 219.32 111.857 217.338 111.708 215.345Z" fill="#263238"/>
<path d="M165.454 226.714C165.355 226.714 166.516 219.427 168.044 210.484C169.572 201.542 170.874 194.305 170.994 194.319C171.114 194.333 169.94 201.599 168.412 210.548C166.884 219.498 165.561 226.728 165.454 226.714Z" fill="#263238"/>
<path d="M40.4032 231.914L26.1337 249.975C26.1337 249.975 2.9713 241.535 0.0211792 244.62L34.0431 273.548L57.446 246.318L40.4032 231.914Z" fill="#263238"/>
<path d="M37.9059 257.446C38.1495 257.824 38.2452 258.278 38.1747 258.722C38.1042 259.165 37.8725 259.568 37.5238 259.851C37.1537 260.107 36.6997 260.211 36.2551 260.143C35.8105 260.074 35.4089 259.838 35.1326 259.483C34.8771 259.082 34.7791 258.601 34.8574 258.132C34.9358 257.663 35.1851 257.24 35.5571 256.944C36.3353 256.491 37.6795 256.767 37.9979 257.594" fill="#E0E0E0"/>
<path d="M34.0431 273.548L36.2929 270.718L2.82985 244.032C2.82985 244.032 0.756986 243.403 0 244.62L34.0431 273.548Z" fill="#455A64"/>
<path d="M25.7305 249.331C25.596 249.508 26.3601 250.286 26.7209 251.517C27.0817 252.748 26.9261 253.817 27.1383 253.88C27.3506 253.944 27.9165 252.77 27.4496 251.291C26.9827 249.812 25.8224 249.154 25.7305 249.331Z" fill="white"/>
<path d="M20.9055 247.775C20.7287 247.902 21.2097 248.801 21.1744 249.982C21.139 251.164 20.6721 252.048 20.8489 252.182C21.0258 252.317 21.9243 251.475 21.9384 249.989C21.9526 248.504 21.047 247.619 20.9055 247.775Z" fill="white"/>
<path d="M15.2458 250.322C15.3661 250.484 16.307 249.855 16.6608 248.581C17.0145 247.308 16.5405 246.289 16.3495 246.367C16.1585 246.445 16.2292 247.336 15.925 248.376C15.6208 249.416 15.0973 250.166 15.2458 250.322Z" fill="white"/>
<path d="M29.4375 245.582C29.3809 245.787 30.336 246.211 31.2203 247.067C32.1047 247.923 32.5857 248.85 32.7909 248.779C32.9961 248.709 32.7909 247.52 31.7438 246.523C30.6968 245.525 29.4658 245.377 29.4375 245.582Z" fill="white"/>
<path d="M71.4184 201.224C71.4184 202.865 64.1033 278.076 64.1033 278.076L88.815 280.905C88.815 280.905 94.9628 242.971 95.8896 235.981C96.8164 228.992 100.042 216.463 100.042 216.463L152.756 211.249C152.756 211.249 126.898 175.083 124.386 174.927C121.875 174.772 71.4184 201.224 71.4184 201.224Z" fill="#263238"/>
<path d="M28.7159 242.787C28.7159 242.787 72.9536 182.809 75.5076 179.667C78.0615 176.526 81.0046 173.194 90.2299 173.194C99.4552 173.194 124.415 174.963 124.415 174.963L137.602 168.956L185.497 176.335C185.497 176.335 187.266 199.109 184.124 204.414C180.983 209.72 162.335 211.086 158.408 211.284C154.482 211.482 93.6682 203.226 93.6682 203.226C93.6682 203.226 81.7545 219.766 76.0311 226.119C71.9561 230.654 50.1875 258.592 50.1875 258.592L28.7159 242.787Z" fill="#263238"/>
<path d="M50.2229 259.08L28.2208 242.858L28.4259 242.575C28.8716 241.974 72.7061 182.561 75.2317 179.448C77.6229 176.505 80.6013 172.84 90.2299 172.84C99.0874 172.84 122.695 174.489 124.351 174.602L137.552 168.589H137.658L185.801 176.01V176.286C185.872 177.227 187.541 199.236 184.386 204.584C180.976 210.336 160.686 211.51 158.38 211.659C154.552 211.878 98.3374 204.238 93.7885 203.622C92.5009 205.405 81.6059 220.431 76.2504 226.381C72.2321 230.852 50.6403 258.55 50.421 258.825L50.2229 259.08ZM29.2041 242.709L50.0885 258.104C52.3523 255.196 71.9137 230.138 75.7411 225.886C81.4008 219.611 93.2366 203.183 93.3569 203.014L93.4772 202.844H93.6894C94.2978 202.929 154.531 211.093 158.359 210.902C159.264 210.852 180.516 209.735 183.792 204.202C186.657 199.37 185.327 179.236 185.136 176.611L137.651 169.324L124.478 175.324H124.386C124.139 175.324 99.342 173.555 90.2299 173.555C80.9409 173.555 78.0828 177.092 75.7835 179.922C73.3569 182.879 32.5221 238.217 29.2041 242.709Z" fill="#455A64"/>
<path d="M88.7513 195.274C89.7927 196.564 90.7385 197.928 91.5811 199.356C92.5352 200.718 93.3866 202.148 94.128 203.636C93.0846 202.348 92.1387 200.983 91.2982 199.554C90.3441 198.193 89.4927 196.762 88.7513 195.274Z" fill="#455A64"/>
<path d="M66.0984 263.205L67.3506 286.19C67.3506 286.19 44.4217 295.189 44.2448 299.498L88.8928 298.656L88.3976 262.759L66.0984 263.205Z" fill="#263238"/>
<path d="M81.1318 283.997C81.5642 284.12 81.9361 284.398 82.1763 284.777C82.4165 285.157 82.5081 285.613 82.4336 286.056C82.3257 286.491 82.0551 286.869 81.6775 287.111C81.2999 287.353 80.8438 287.441 80.4031 287.357C79.9455 287.227 79.5526 286.931 79.3004 286.527C79.0482 286.123 78.9546 285.64 79.0377 285.171C79.3207 284.322 80.5022 283.643 81.3016 284.047" fill="#E0E0E0"/>
<path d="M88.8928 298.62L88.7018 295.005L45.9639 297.163C45.9639 297.163 44.0042 298.083 44.2448 299.498L88.8928 298.62Z" fill="#455A64"/>
<path d="M66.6431 285.978C66.6431 286.197 67.7467 286.275 68.8291 286.954C69.9116 287.633 70.5058 288.539 70.7039 288.454C70.902 288.369 70.5554 287.11 69.2253 286.332C67.8953 285.553 66.5794 285.78 66.6431 285.978Z" fill="white"/>
<path d="M61.9879 288.001C61.9384 288.213 62.8935 288.567 63.6505 289.473C64.4075 290.378 64.6409 291.355 64.8532 291.34C65.0654 291.326 65.1857 290.095 64.2235 288.978C63.2614 287.86 61.9879 287.796 61.9879 288.001Z" fill="white"/>
<path d="M59.434 293.661C59.6321 293.703 59.9151 292.607 59.3279 291.425C58.7407 290.244 57.722 289.784 57.63 289.968C57.538 290.152 58.1889 290.775 58.6487 291.758C59.1086 292.741 59.2147 293.64 59.434 293.661Z" fill="white"/>
<path d="M66.926 280.707C67.0251 280.905 68.0155 280.587 69.2536 280.644C70.4916 280.7 71.4538 281.075 71.5599 280.884C71.666 280.693 70.7322 279.936 69.2819 279.887C67.8316 279.837 66.8199 280.538 66.926 280.707Z" fill="white"/>
<path d="M156.335 117.085L157.906 131.425L139.901 167.541C139.901 167.541 129.254 171.079 125.483 174.963L134.107 175.338C146.544 175.856 158.51 180.244 168.334 187.888C172.579 191.213 176.024 194.807 176.661 198.076C178.535 207.697 181.408 206.211 181.408 206.211L192.324 192.168L199.965 176.972L215.309 117.446L200.502 109.31L197.177 104.471L175.246 107.527L170.881 111.836L156.335 117.085Z" fill="#455A64"/>
<path d="M119.965 155.557L129.162 151.708L143.615 131.433C143.615 131.433 150.322 118.026 156.349 117.085C162.377 116.144 157.906 131.425 157.906 131.425L148.638 157.743L133.689 168.206L123.382 167.308L116.71 161.648L119.965 155.557Z" fill="#455A64"/>
<path d="M157.771 122.073C157.732 122.236 157.678 122.394 157.609 122.547C157.481 122.886 157.304 123.325 157.092 123.87C156.625 125.065 155.967 126.7 155.168 128.737C153.548 132.855 151.376 138.564 148.999 144.874C146.622 151.185 144.407 156.901 142.724 160.976C141.889 163.021 141.188 164.669 140.686 165.801L140.106 167.096C140.048 167.253 139.972 167.402 139.88 167.541C139.914 167.378 139.966 167.219 140.035 167.067C140.17 166.735 140.339 166.289 140.559 165.744C141.026 164.556 141.684 162.915 142.483 160.877C144.103 156.767 146.275 151.058 148.652 144.74C151.029 138.422 153.237 132.713 154.92 128.645C155.762 126.601 156.463 124.945 156.965 123.82L157.545 122.518C157.604 122.362 157.68 122.213 157.771 122.073Z" fill="#263238"/>
<path d="M175.819 121.479C175.605 121.171 175.421 120.844 175.267 120.502C174.906 119.795 174.446 118.889 173.852 117.786H174.093C173.612 118.847 173.053 120.106 172.303 121.443C171.518 122.913 170.505 124.25 169.303 125.405L168.956 125.723L168.992 125.256V125.179C169.261 121.528 169.699 118.238 170.074 115.875C170.272 114.694 170.449 113.753 170.584 113.081C170.635 112.737 170.718 112.398 170.831 112.069C170.83 112.416 170.795 112.762 170.725 113.102C170.626 113.81 170.492 114.779 170.336 115.932C170.011 118.302 169.628 121.592 169.36 125.228V125.306L169.055 125.157C170.225 124.026 171.219 122.726 172.006 121.302C172.755 119.986 173.343 118.741 173.852 117.694L173.979 117.432L174.093 117.694C174.609 118.811 175.033 119.745 175.366 120.46C175.545 120.786 175.697 121.127 175.819 121.479Z" fill="#263238"/>
<path d="M199.059 110.428C199.005 110.534 198.936 110.632 198.854 110.718L198.217 111.496C197.651 112.204 196.802 113.123 195.755 114.277C192.988 117.264 190.059 120.098 186.983 122.766C185.341 124.181 183.735 125.511 182.236 126.678L181.967 126.891V126.551C181.923 124.253 181.551 121.973 180.863 119.781L181.04 119.844L178.352 121.387C178.034 121.583 177.703 121.755 177.361 121.903C177.649 121.668 177.957 121.457 178.281 121.273L180.92 119.639L181.04 119.561L181.089 119.703C181.841 121.908 182.251 124.215 182.306 126.544L182.03 126.41C183.516 125.235 185.115 123.912 186.742 122.49C190.343 119.363 193.413 116.321 195.578 114.071C196.661 112.947 197.517 112.013 198.118 111.376L198.826 110.668C198.895 110.581 198.973 110.5 199.059 110.428Z" fill="#263238"/>
<path d="M197.729 106.36L199.222 75.9391C200.17 66.4166 195.416 57.92 185.865 57.2408H184.98C180.679 57.1846 176.515 58.7495 173.315 61.6242C170.115 64.499 168.114 68.4729 167.711 72.7555C166.94 81.0187 166.19 90.152 166.183 94.5949C166.183 103.792 175.345 105.327 175.345 105.327C175.345 105.327 175.104 110.909 174.949 113.597L176.873 120.601L197.729 106.36Z" fill="#FFBF9D"/>
<path d="M175.366 105.32C179.615 105.37 183.79 104.199 187.393 101.945C187.393 101.945 184.422 108.808 175.267 107.867L175.366 105.32Z" fill="#FF9A6C"/>
<path d="M170.449 81.1248C170.441 81.4672 170.568 81.799 170.802 82.049C171.036 82.299 171.359 82.4472 171.701 82.4619C171.868 82.4764 172.036 82.4576 172.195 82.4065C172.354 82.3555 172.502 82.2732 172.629 82.1646C172.756 82.0559 172.86 81.923 172.935 81.7737C173.01 81.6243 173.055 81.4615 173.067 81.2946C173.076 80.9529 172.951 80.6211 172.718 80.3709C172.485 80.1207 172.163 79.9722 171.822 79.9575C171.654 79.942 171.486 79.9601 171.326 80.0107C171.166 80.0613 171.017 80.1434 170.89 80.2522C170.762 80.3609 170.657 80.4942 170.581 80.644C170.506 80.7939 170.461 80.9574 170.449 81.1248Z" fill="#263238"/>
<path d="M169.629 76.4909C169.791 76.6678 170.796 75.9462 172.204 75.9674C173.612 75.9886 174.644 76.7102 174.8 76.5405C174.956 76.3707 174.715 76.1514 174.262 75.833C173.662 75.3864 172.937 75.139 172.19 75.1255C171.455 75.1147 170.737 75.3377 170.138 75.7622C169.699 76.1089 169.551 76.4131 169.629 76.4909Z" fill="#263238"/>
<path d="M182.759 81.3937C182.753 81.7356 182.881 82.0663 183.114 82.3159C183.348 82.5655 183.67 82.7143 184.011 82.7308C184.177 82.7463 184.345 82.7284 184.504 82.6781C184.664 82.6279 184.811 82.5463 184.938 82.4382C185.066 82.3301 185.17 82.1976 185.245 82.0486C185.32 81.8996 185.365 81.7371 185.377 81.5705C185.384 81.2286 185.259 80.897 185.026 80.6461C184.794 80.3952 184.473 80.2446 184.132 80.2263C183.964 80.2109 183.796 80.229 183.636 80.2796C183.476 80.3302 183.327 80.4123 183.199 80.521C183.072 80.6298 182.967 80.763 182.891 80.9129C182.815 81.0627 182.771 81.2262 182.759 81.3937Z" fill="#263238"/>
<path d="M183.459 77.0003C183.622 77.1772 184.627 76.4555 186.035 76.4768C187.442 76.498 188.475 77.1842 188.631 77.0427C188.787 76.9013 188.546 76.6607 188.1 76.3353C187.494 75.9063 186.77 75.6741 186.027 75.6703C185.294 75.6554 184.575 75.876 183.976 76.2999C183.537 76.6466 183.374 76.9225 183.459 77.0003Z" fill="#263238"/>
<path d="M178.26 87.782C177.516 87.5422 176.747 87.3926 175.967 87.3363C175.614 87.2939 175.26 87.2231 175.21 86.9755C175.188 86.6021 175.277 86.2306 175.465 85.9072C175.819 85.0371 176.173 84.1315 176.569 83.1764C178.097 79.2854 179.215 76.1018 179.059 76.0311C178.903 75.9603 177.531 79.0731 176.003 82.9571C175.628 83.9193 175.295 84.8319 174.942 85.7092C174.708 86.1415 174.635 86.643 174.736 87.1241C174.785 87.2534 174.864 87.3694 174.966 87.4627C175.068 87.5561 175.19 87.6243 175.324 87.6618C175.522 87.7164 175.726 87.7473 175.932 87.7537C176.704 87.8617 177.486 87.8712 178.26 87.782Z" fill="#263238"/>
<path d="M183.063 72.5787C183.247 72.9395 184.627 72.5787 186.289 72.5787C187.952 72.5787 189.346 72.8475 189.522 72.4725C189.593 72.2957 189.317 71.9702 188.737 71.6731C187.969 71.3012 187.121 71.1215 186.268 71.1496C185.412 71.1557 184.571 71.3667 183.813 71.7651C183.247 72.0693 182.978 72.4018 183.063 72.5787Z" fill="#263238"/>
<path d="M169.621 72.3452C169.904 72.6706 171.036 72.3452 172.451 72.3947C173.866 72.4442 174.998 72.6777 175.281 72.3522C175.401 72.1966 175.232 71.8641 174.729 71.5528C174.032 71.1676 173.248 70.9655 172.451 70.9655C171.654 70.9655 170.871 71.1676 170.173 71.5528C169.664 71.857 169.494 72.1825 169.621 72.3452Z" fill="#263238"/>
<path d="M198.401 82.4053C198.557 82.3346 204.733 80.6154 204.45 86.8977C204.167 93.18 197.927 91.5953 197.927 91.4113C197.927 91.2274 198.401 82.4053 198.401 82.4053Z" fill="#FFBF9D"/>
<path d="M199.95 89.1192C199.95 89.1192 200.056 89.2041 200.233 89.296C200.488 89.4312 200.785 89.4617 201.061 89.3809C201.733 89.1616 202.342 88.1358 202.419 87.0039C202.461 86.4671 202.381 85.9279 202.186 85.4262C202.135 85.2276 202.038 85.0441 201.901 84.8914C201.764 84.7386 201.593 84.6212 201.401 84.549C201.276 84.5096 201.142 84.5158 201.021 84.5663C200.901 84.6168 200.802 84.7084 200.743 84.8249C200.651 84.9947 200.686 85.122 200.651 85.1291C200.615 85.1362 200.516 85.0159 200.58 84.7612C200.624 84.6071 200.719 84.4724 200.849 84.3792C201.026 84.2568 201.245 84.2086 201.457 84.2448C201.712 84.3081 201.947 84.4357 202.139 84.6152C202.331 84.7947 202.474 85.0203 202.554 85.2706C202.796 85.8271 202.9 86.4338 202.858 87.0392C202.759 88.2985 202.059 89.4588 201.139 89.6781C200.968 89.7183 200.791 89.7202 200.62 89.6835C200.448 89.6468 200.287 89.5724 200.148 89.4658C199.95 89.2748 199.929 89.1333 199.95 89.1192Z" fill="#FF9A6C"/>
<path d="M155.515 63.4736C155.636 63.1139 155.889 62.8132 156.222 62.6317C156.971 62.3294 157.786 62.2317 158.585 62.3487C160.587 62.3978 162.574 61.9889 164.393 61.1531C163.785 60.8261 163.233 60.4033 162.759 59.9009C162.25 59.3911 161.891 58.7516 161.72 58.0519C161.549 57.3522 161.573 56.619 161.79 55.932C161.826 55.8024 161.891 55.6828 161.981 55.5823C162.07 55.4817 162.182 55.4029 162.306 55.3519C162.724 55.2458 163.063 55.6632 163.332 55.9886C163.672 56.4964 164.142 56.903 164.694 57.1658C165.246 57.4285 165.858 57.5375 166.466 57.4814C167.308 57.4645 168.136 57.2564 168.886 56.873C168.913 56.8463 168.939 56.818 168.963 56.7881L169.968 55.8613C172.43 53.6186 174.531 52.0834 176.661 51.3335C179.774 50.2299 184.924 49.9186 188.086 50.9232C191.249 51.9278 194.001 54.6162 194.305 57.9129C196.158 56.498 198.854 56.6041 200.997 57.5734H201.054C203.445 58.5426 204.719 61.1673 205.299 63.6788C205.334 63.8203 205.362 63.9547 205.391 64.0962C206.154 65.4412 207.229 66.5838 208.525 67.4283C208.758 67.5769 209.02 67.7538 209.034 68.0297C209.048 68.3056 208.815 68.5107 208.588 68.6593C207.982 69.0411 207.298 69.2828 206.586 69.3668C206.771 69.9688 207.007 70.5535 207.294 71.1142C207.549 71.5882 207.846 72.1613 207.591 72.6282C207.473 72.8021 207.305 72.9358 207.109 73.0117C206.913 73.0875 206.699 73.1018 206.494 73.0527C206.09 72.9431 205.712 72.753 205.384 72.4938C205.631 73.1517 205.872 73.8167 206.091 74.4747C205.203 74.5842 204.302 74.4849 203.459 74.1846C202.844 76.4768 202.271 80.7569 201.606 82.2992C199.936 82.2568 199.54 82.0587 198.684 82.2992C197.587 82.6105 197.913 84.556 196.526 83.9476C195.819 83.6363 194.828 80.856 194.616 80.1131C193.23 75.1562 192.924 69.9598 193.718 64.8744C192.755 63.7555 191.585 62.8331 190.272 62.1577L190.378 62.2568C187.846 61.2592 184.98 60.2546 182.497 61.3583C180.566 62.2072 179.37 64.1245 177.892 65.6031C176.64 66.9808 175.109 68.0768 173.402 68.8184C171.694 69.5599 169.849 69.9301 167.987 69.9044C167.506 72.6636 167.202 77.1913 166.954 79.7665L164.973 74.4959C164.811 74.1846 164.676 73.8733 164.549 73.562L164.499 73.4701C164.294 72.9678 164.096 72.4655 163.834 71.9702C163.523 72.2037 163.137 72.3171 162.749 72.2897C162.361 72.2622 161.995 72.0958 161.719 71.8209C161.444 71.546 161.276 71.181 161.247 70.7927C161.219 70.4044 161.331 70.0187 161.563 69.7064C161.796 69.4154 162.073 69.1624 162.384 68.9564C162.074 69.247 161.696 69.4555 161.284 69.563C160.873 69.6705 160.441 69.6736 160.028 69.5719C159.612 69.4244 159.256 69.1445 159.015 68.7752C158.773 68.4059 158.66 67.9675 158.691 67.5274C158.738 67.2319 158.863 66.9541 159.052 66.7218C159.24 66.4896 159.487 66.3112 159.766 66.2044C158.612 66.2418 157.472 65.9365 156.491 65.3272C155.868 64.9098 155.26 64.273 155.515 63.4736Z" fill="#263238"/>
<path d="M191.397 58.8397C191.712 59.1135 192.008 59.409 192.281 59.7241C192.972 60.6323 193.414 61.7054 193.562 62.8369C193.685 63.611 193.73 64.3955 193.696 65.1786C193.696 66.0275 193.555 66.926 193.449 67.8811C193.323 68.8786 193.257 69.8826 193.251 70.8878C193.256 71.4237 193.303 71.9583 193.392 72.4867C193.448 73.0513 193.647 73.5922 193.972 74.0573C194.126 74.2417 194.324 74.3839 194.548 74.4706C194.773 74.5572 195.015 74.5854 195.253 74.5525C195.707 74.4843 196.126 74.2708 196.448 73.9441C196.974 73.2781 197.313 72.4847 197.432 71.6448H197.241C197.485 72.3506 197.833 73.0159 198.274 73.6186C198.699 74.18 199.325 74.5551 200.021 74.6657C200.343 74.7138 200.672 74.6696 200.969 74.5383C201.249 74.4112 201.484 74.2013 201.641 73.937C201.789 73.6936 201.87 73.4153 201.875 73.1305C201.868 72.8709 201.773 72.6213 201.606 72.423L201.507 72.5079C202.026 73.1579 202.677 73.6908 203.417 74.0714C203.61 74.1739 203.811 74.2614 204.018 74.3332C204.088 74.3648 204.162 74.3862 204.238 74.3968L204.032 74.3049C203.898 74.2412 203.7 74.1492 203.452 74.0077C202.737 73.6115 202.111 73.0721 201.613 72.423L201.507 72.5079C201.649 72.7071 201.726 72.9458 201.726 73.1906C201.726 73.4354 201.649 73.6741 201.507 73.8733C201.363 74.1101 201.151 74.2976 200.898 74.411C200.626 74.5251 200.327 74.5618 200.035 74.5171C199.388 74.4036 198.808 74.0467 198.415 73.5196C197.993 72.9265 197.657 72.2762 197.418 71.5882L197.297 71.2911L197.227 71.6024C197.109 72.405 196.785 73.1632 196.286 73.8026C195.998 74.0949 195.623 74.2861 195.217 74.3473C195.015 74.3773 194.809 74.3546 194.618 74.2815C194.427 74.2084 194.258 74.0873 194.128 73.9299C193.828 73.4927 193.646 72.9861 193.597 72.4584C193.509 71.9418 193.461 71.419 193.456 70.8949C193.455 69.8969 193.516 68.8997 193.64 67.9094C193.739 66.9543 193.838 66.0488 193.866 65.1927C193.894 64.3969 193.84 63.6003 193.703 62.8157C193.54 61.6667 193.068 60.5836 192.338 59.6816C192.075 59.3487 191.757 59.0639 191.397 58.8397Z" fill="#455A64"/>
<path d="M162.589 66.5582L162.66 66.6289C162.724 66.6713 162.794 66.735 162.886 66.8058C163.004 66.9032 163.129 66.9907 163.261 67.0675C163.435 67.1859 163.617 67.2923 163.806 67.3859C165.015 67.9987 166.357 68.3002 167.711 68.2631C169.734 68.2252 171.702 67.5956 173.371 66.452C175.381 65.05 177.083 63.2515 178.373 61.1673C179.08 60.0849 179.682 58.9671 180.325 57.9412C180.919 56.9408 181.65 56.0287 182.497 55.2317C183.265 54.5164 184.199 54.0035 185.214 53.7389C185.678 53.6324 186.155 53.5989 186.629 53.6399C187.062 53.681 187.489 53.781 187.895 53.937C188.598 54.2141 189.234 54.636 189.763 55.1751C190.163 55.5902 190.493 56.0682 190.739 56.59C190.931 57.0445 191.071 57.5191 191.157 58.0049C191.157 58.0049 191.157 58.0049 191.157 57.9059C191.157 57.8068 191.157 57.7361 191.157 57.6229C191.095 57.2611 190.993 56.9075 190.852 56.5688C190.608 56.048 190.28 55.5702 189.883 55.1538C189.351 54.5915 188.705 54.15 187.987 53.8592C187.567 53.6937 187.127 53.5843 186.678 53.5337C186.191 53.4909 185.699 53.5219 185.221 53.6257C184.165 53.8877 183.192 54.4108 182.391 55.1468C181.523 55.9508 180.775 56.8752 180.17 57.8917C179.519 58.9246 178.925 60.0141 178.21 61.1178C176.927 63.1773 175.243 64.9577 173.258 66.353C171.629 67.478 169.711 68.1115 167.732 68.1782C166.4 68.2236 165.075 67.9495 163.87 67.3788C163.428 67.1293 163 66.8553 162.589 66.5582Z" fill="#455A64"/>
<path d="M161.931 62.4973C162.025 62.5921 162.133 62.6731 162.25 62.7378C162.553 62.9423 162.872 63.1221 163.205 63.2755C163.694 63.511 164.203 63.7028 164.726 63.8486C166.011 64.2103 167.356 64.3114 168.68 64.1457C169.22 64.0807 169.753 63.9671 170.272 63.8061C170.624 63.7043 170.967 63.5742 171.298 63.417C171.424 63.3692 171.543 63.305 171.652 63.226C171.652 63.226 171.114 63.4241 170.237 63.6575C169.084 63.9592 167.889 64.0691 166.7 63.983C166.048 63.9282 165.402 63.8193 164.768 63.6575C164.252 63.5245 163.748 63.3494 163.261 63.134C162.427 62.7661 161.952 62.4548 161.931 62.4973Z" fill="#455A64"/>
<path d="M178.153 92.0763C178.238 91.85 179.689 92.5079 181.28 91.7297C182.872 90.9515 183.403 89.3385 183.615 89.4234C183.827 89.5083 183.742 89.8903 183.466 90.5482C183.094 91.4025 182.433 92.0986 181.599 92.515C180.797 92.9143 179.87 92.9854 179.017 92.7131C178.422 92.4938 178.104 92.1683 178.153 92.0763Z" fill="#263238"/>
<path d="M165.454 226.714C165.454 226.268 170.407 194.319 172.274 190.244C173.781 187.018 185.851 184.499 198.783 179.278C212.706 173.661 228.843 173.272 228.843 173.272L208.412 220.431L165.454 226.714Z" fill="#FF725E"/>
<path d="M172.692 158.96L160.898 159.837V171.114L174.227 172.706L172.692 158.96Z" fill="#FFBF9D"/>
<path d="M210.081 114.765C215.904 117.156 221.302 122.32 220.948 129.013C220.424 138.917 218.118 160.219 217.559 165.702C216.852 172.862 214.432 178.889 203.898 179.285C193.364 179.682 177.863 177.12 177.863 177.12C177.863 177.12 172.281 179.95 170.739 176.845C170.336 176.017 167.563 159.342 167.563 159.342C167.563 159.116 168.928 157.531 170.881 156.555C171.951 156.026 173.183 155.927 174.324 156.278C175.464 156.629 176.427 157.404 177.014 158.443L197.531 157.771L201.599 138.458" fill="#455A64"/>
<path d="M201.62 138.458C201.61 138.569 201.593 138.68 201.57 138.79C201.521 139.024 201.457 139.349 201.379 139.774C201.203 140.644 200.941 141.896 200.608 143.566C199.901 146.891 198.925 151.723 197.665 157.8V157.885H197.573L183.141 158.38L179.016 158.521L177.955 158.557H177.425H177.007C177.007 158.557 176.746 158.408 176.866 158.472L176.795 158.366C176.434 157.76 175.931 157.25 175.331 156.88C174.716 156.494 174.017 156.263 173.294 156.208C172.57 156.152 171.844 156.274 171.178 156.562C170.491 156.875 169.847 157.274 169.261 157.75C168.958 157.985 168.67 158.238 168.397 158.507C168.263 158.642 168.129 158.783 168.008 158.925C167.888 159.066 167.888 159.073 167.832 159.144C167.775 159.215 167.718 159.342 167.725 159.307C168.376 163.184 169.07 167.259 169.848 171.475C170.046 172.529 170.244 173.597 170.442 174.666C170.548 175.196 170.654 175.734 170.782 176.265C170.817 176.519 170.911 176.761 171.058 176.972C171.122 177.081 171.196 177.185 171.277 177.283L171.56 177.545C172.014 177.824 172.521 178.008 173.049 178.086C173.576 178.164 174.114 178.134 174.63 177.998C175.728 177.796 176.792 177.444 177.793 176.951H177.849H177.906C182.08 177.609 186.487 178.168 190.987 178.592C194.093 178.875 197.177 179.08 200.219 179.137C203.261 179.193 206.275 179.137 209.077 178.295C210.455 177.872 211.743 177.198 212.876 176.307C213.979 175.424 214.879 174.314 215.515 173.053C216.658 170.541 217.316 167.836 217.453 165.08C218.578 154.298 219.575 144.563 220.283 136.42C220.46 134.383 220.608 132.437 220.729 130.598C220.792 129.671 220.849 128.78 220.835 127.924C220.835 127.492 220.75 127.068 220.714 126.657C220.679 126.247 220.552 125.844 220.467 125.447C220.078 123.993 219.431 122.62 218.557 121.394C217.824 120.363 216.982 119.414 216.045 118.564C214.731 117.397 213.279 116.394 211.723 115.578C211.192 115.288 210.775 115.104 210.492 114.977L210.074 114.772C210.074 114.772 210.223 114.821 210.506 114.942C210.789 115.062 211.213 115.239 211.758 115.515C213.337 116.307 214.81 117.293 216.144 118.451C217.094 119.302 217.953 120.25 218.705 121.28C219.597 122.521 220.261 123.91 220.665 125.384C220.75 125.787 220.849 126.19 220.927 126.608C221.004 127.025 221.033 127.457 221.054 127.895C221.054 128.78 221.054 129.678 220.962 130.598C220.849 132.437 220.707 134.39 220.545 136.427C219.88 144.606 218.889 154.319 217.785 165.101C217.644 167.902 216.972 170.651 215.805 173.201C215.145 174.506 214.217 175.656 213.081 176.576C211.91 177.492 210.582 178.188 209.162 178.627C206.332 179.505 203.226 179.526 200.191 179.491C197.156 179.455 194.043 179.229 190.93 178.946C186.424 178.521 182.016 177.962 177.828 177.297H177.941C176.905 177.802 175.806 178.166 174.673 178.38C174.109 178.514 173.524 178.534 172.952 178.436C172.381 178.339 171.835 178.127 171.348 177.814L171.022 177.51C170.925 177.398 170.84 177.277 170.767 177.149C170.604 176.904 170.496 176.626 170.449 176.335C170.315 175.791 170.216 175.253 170.11 174.715C169.911 173.647 169.713 172.593 169.515 171.524C168.758 167.28 168.1 163.226 167.393 159.349C167.418 159.216 167.477 159.092 167.563 158.988C167.626 158.91 167.69 158.826 167.754 158.755C167.817 158.684 168.023 158.458 168.164 158.316C168.444 158.036 168.742 157.773 169.055 157.531C169.668 157.043 170.338 156.632 171.05 156.307C172.118 155.855 173.312 155.802 174.415 156.158C175.517 156.514 176.455 157.255 177.057 158.245L177.135 158.366C177.255 158.436 176.965 158.274 177 158.295H177.382H177.92L178.981 158.26L183.106 158.132L197.538 157.687L197.425 157.778C198.726 151.716 199.759 146.891 200.474 143.573L201.302 139.788C201.401 139.363 201.471 139.045 201.521 138.811L201.62 138.458Z" fill="#263238"/>
<path d="M208.843 116.378C208.886 116.427 208.136 117.156 207.075 118.5C205.731 120.263 204.621 122.191 203.771 124.238C202.924 126.283 202.316 128.42 201.96 130.605C201.677 132.281 201.62 133.343 201.549 133.336C201.52 133.089 201.52 132.84 201.549 132.593C201.549 132.112 201.613 131.418 201.712 130.562C202.002 128.335 202.585 126.156 203.445 124.082C203.923 122.942 204.486 121.84 205.129 120.785C205.657 119.926 206.244 119.103 206.884 118.323C207.326 117.801 207.798 117.305 208.298 116.838C208.617 116.526 208.843 116.356 208.843 116.378Z" fill="#263238"/>
<path d="M206.402 166.41C206.339 166.41 206.183 165.702 205.695 164.634C204.434 161.827 202.119 159.628 199.25 158.514C198.153 158.097 197.425 157.977 197.439 157.913C197.453 157.849 197.623 157.913 197.955 157.913C198.425 157.977 198.887 158.086 199.335 158.238C200.005 158.456 200.651 158.745 201.259 159.101C202.005 159.538 202.7 160.055 203.332 160.644C203.952 161.245 204.505 161.911 204.98 162.632C205.364 163.221 205.684 163.85 205.936 164.506C206.113 164.945 206.245 165.4 206.332 165.865C206.41 166.226 206.431 166.402 206.402 166.41Z" fill="#263238"/>
<path d="M178.026 176.533C177.969 176.533 178.252 175.522 178.486 173.866C178.781 171.717 178.901 169.547 178.847 167.379C178.815 166.195 178.72 165.015 178.564 163.841C178.426 162.886 178.225 161.941 177.962 161.012C177.503 159.413 176.951 158.528 177.014 158.493C177.174 158.678 177.31 158.882 177.418 159.101C177.566 159.347 177.694 159.605 177.8 159.873C177.962 160.216 178.099 160.57 178.21 160.934C178.523 161.873 178.76 162.836 178.917 163.813C179.098 165.008 179.205 166.213 179.236 167.421C179.3 169.611 179.141 171.801 178.762 173.958C178.647 174.612 178.496 175.259 178.309 175.897C178.239 176.119 178.144 176.332 178.026 176.533Z" fill="#263238"/>
<path d="M97.9483 134.001C97.9483 134.001 98.7477 132.083 100.34 131.687C100.34 131.687 108.235 133.81 110.541 136.328C110.541 136.328 111.001 134.531 115.239 130.923C118.388 128.233 122.331 126.648 126.466 126.41L130.661 129.048L113.845 140.828L108.843 142.575L97.9483 134.001Z" fill="#FAFAFA"/>
<path d="M97.9483 134.001C98.0232 134.041 98.0942 134.089 98.1605 134.142L98.7477 134.588L100.955 136.279L108.928 142.441H108.794L113.788 140.679L130.364 128.999L130.555 128.864V129.176C129.14 128.277 127.725 127.393 126.36 126.537H126.459C122.985 126.742 119.635 127.905 116.781 129.897C115.518 130.812 114.335 131.832 113.244 132.946C112.721 133.462 112.23 134.007 111.772 134.581C111.335 135.102 110.975 135.683 110.704 136.307L110.619 136.533L110.456 136.371C109.626 135.577 108.67 134.927 107.626 134.446C106.706 133.986 105.761 133.575 104.797 133.215C103.028 132.508 101.5 132.055 100.283 131.701H100.318C99.5206 131.976 98.8446 132.522 98.4082 133.244C98.283 133.424 98.1673 133.61 98.0615 133.803C97.9837 133.93 97.9554 133.994 97.9483 133.994C97.9615 133.919 97.9879 133.847 98.0261 133.781C98.1204 133.582 98.2267 133.388 98.3445 133.201C98.7891 132.45 99.4901 131.885 100.318 131.609H100.361C101.585 131.935 103.127 132.395 104.91 133.06C105.873 133.411 106.818 133.812 107.74 134.262C108.808 134.755 109.79 135.417 110.647 136.222L110.4 136.286C110.673 135.617 111.047 134.994 111.51 134.439C111.97 133.856 112.464 133.301 112.989 132.777C114.102 131.655 115.306 130.628 116.59 129.706C119.505 127.654 122.935 126.458 126.494 126.254H126.544H126.593L130.789 128.886L131.022 129.034L130.796 129.197L130.605 129.331L113.93 140.955L108.921 142.681H108.85L108.787 142.632L100.849 136.264L98.7265 134.531L98.1747 134.078C98.0964 134.062 98.0203 134.036 97.9483 134.001Z" fill="#263238"/>
<path d="M95.175 133.675L95.649 132.72L107.492 139.314C107.492 139.314 111.383 139.073 111.461 136.484C111.461 136.484 130.852 128.376 131.326 128.617C131.8 128.857 162.858 154.651 162.858 154.651L134.807 160.63L121.825 154.885L95.175 133.675Z" fill="#FF725E"/>
<path d="M131.234 159.052C131.171 159.13 125.801 154.772 119.208 149.324C112.614 143.877 107.393 139.42 107.457 139.314C107.52 139.208 112.89 143.558 119.448 149.041C126.006 154.524 131.298 158.967 131.234 159.052Z" fill="#263238"/>
<path d="M138.804 159.653C138.734 159.731 132.621 154.63 125.15 148.263C117.679 141.896 111.708 136.668 111.708 136.59C111.708 136.512 117.885 141.613 125.363 147.987C132.84 154.361 138.84 159.575 138.804 159.653Z" fill="#263238"/>
<path d="M111.624 144.605C111.546 144.605 108.9 144.351 108.27 145.504C107.641 146.657 107.563 147.287 107.817 147.973C108.249 148.733 108.761 149.445 109.346 150.095L109.798 150.93C109.325 151.9 109.176 152.996 109.374 154.057C109.696 154.969 110.294 155.758 111.086 156.314C111.086 156.314 111.298 159.759 113.392 159.788C113.544 160.327 113.865 160.803 114.309 161.146C114.752 161.489 115.294 161.68 115.854 161.691C117.778 161.641 118.748 162.136 120.884 161.033C123.021 159.929 125.497 158.826 126.042 157.722C126.586 156.618 124.683 156.498 124.683 156.498C124.683 156.498 125.716 153.668 122.384 154.036C122.384 154.036 122.759 151.1 120.622 150.746C118.468 150.543 116.301 150.513 114.142 150.654L112.43 148.589C112.43 148.589 113.675 148.235 113.746 147.131C113.817 146.027 112.628 144.641 111.624 144.605Z" fill="#FFBF9D"/>
<path d="M155.21 155.819C154.998 155.89 152.43 157.036 150.718 156.816C149.006 156.597 135.734 149.331 133.81 148.758C131.885 148.185 128.603 148.758 130.98 151.256C133.357 153.753 140.615 157.821 140.757 158.033C140.935 158.481 141.08 158.943 141.188 159.413L133.767 156.583C133.767 156.583 128.341 153.873 127.485 155.515C126.629 157.156 127.916 158.083 129.268 158.507C130.619 158.932 132.098 159.391 132.098 159.391C132.098 159.391 133.668 162.292 135.232 163.431C136.795 164.57 143.94 169.14 145.136 169.643C146.332 170.145 160.976 171.284 161.259 171.058C161.542 170.831 161.259 160.141 161.259 160.141L156.123 155.507L155.21 155.819Z" fill="#FFBF9D"/>
</svg>
